{
  "accessors": [
    {
      "bufferView": 2,
      "componentType": 5126,
      "count": 18425,
      "max": [
        1.154806137084961,
        0.3055906295776367,
        0.9476749300956726
      ],
      "min": [
        -1.1550740003585815,
        -0.5158935189247131,
        0.0001666545867919922
      ],
      "type": "VEC3"
    },
    {
      "bufferView": 2,
      "byteOffset": 221100,
      "componentType": 5126,
      "count": 18425,
      "max": [
        1.0,
        1.0,
        1.0
      ],
      "min": [
        -1.0,
        -1.0,
        -1.0
      ],
      "type": "VEC3"
    },
    {
      "bufferView": 3,
      "componentType": 5126,
      "count": 18425,
      "max": [
        1.0,
        1.0,
        1.0,
        1.0
      ],
      "min": [
        -1.0,
        -1.0,
        -1.0,
        1.0
      ],
      "type": "VEC4"
    },
    {
      "bufferView": 1,
      "componentType": 5126,
      "count": 18425,
      "max": [
        0.9942989945411682,
        0.9159383773803711
      ],
      "min": [
        0.005700943060219288,
        0.005700947716832161
      ],
      "type": "VEC2"
    },
    {
      "bufferView": 1,
      "byteOffset": 147400,
      "componentType": 5126,
      "count": 18425,
      "max": [
        0.9942989945411682,
        0.9159383773803711
      ],
      "min": [
        0.005700943060219288,
        0.005700947716832161
      ],
      "type": "VEC2"
    },
    {
      "bufferView": 1,
      "byteOffset": 294800,
      "componentType": 5126,
      "count": 18425,
      "max": [
        0.9942989945411682,
        0.9159383773803711
      ],
      "min": [
        0.005700943060219288,
        0.005700947716832161
      ],
      "type": "VEC2"
    },
    {
      "bufferView": 0,
      "componentType": 5125,
      "count": 85800,
      "type": "SCALAR"
    }
  ],
  "asset": {
    "extras": {
      "author": "creative_beast (https://sketchfab.com/creative_beast)",
      "license": "CC-BY-4.0 (http://creativecommons.org/licenses/by/4.0/)",
      "source": "https://sketchfab.com/3d-models/waiting-chair-76c028f787e049e4b6c3b8550f015f23",
      "title": "Waiting Chair"
    },
    "generator": "Sketchfab-15.50.0",
    "version": "2.0"
  },
  "bufferViews": [
    {
      "buffer": 0,
      "byteLength": 343200,
      "name": "floatBufferViews",
      "target": 34963
    },
    {
      "buffer": 0,
      "byteLength": 442200,
      "byteOffset": 343200,
      "byteStride": 8,
      "name": "floatBufferViews",
      "target": 34962
    },
    {
      "buffer": 0,
      "byteLength": 442200,
      "byteOffset": 785400,
      "byteStride": 12,
      "name": "floatBufferViews",
      "target": 34962
    },
    {
      "buffer": 0,
      "byteLength": 294800,
      "byteOffset": 1227600,
      "byteStride": 16,
      "name": "floatBufferViews",
      "target": 34962
    }
  ],
  "buffers": [
    {
      "byteLength": 1522400,
      "uri": "scene.bin"
    }
  ],
  "images": [
    {
      "uri": "textures/Waiting_Bench_baseColor.png"
    },
    {
      "uri": "textures/Waiting_Bench_metallicRoughness.png"
    },
    {
      "uri": "textures/Waiting_Bench_normal.png"
    }
  ],
  "materials": [
    {
      "doubleSided": true,
      "name": "Waiting_Bench",
      "normalTexture": {
        "index": 2
      },
      "pbrMetallicRoughness": {
        "baseColorTexture": {
          "index": 0
        },
        "metallicRoughnessTexture": {
          "index": 1
        }
      }
    }
  ],
  "meshes": [
    {
      "name": "Waiting Bench (3 Seats)_Waiting Bench_0",
      "primitives": [
        {
          "attributes": {
            "NORMAL": 1,
            "POSITION": 0,
            "TANGENT": 2,
            "TEXCOORD_0": 3,
            "TEXCOORD_1": 4,
            "TEXCOORD_2": 5
          },
          "indices": 6,
          "material": 0,
          "mode": 4
        }
      ]
    }
  ],
  "nodes": [
    {
      "children": [
        1
      ],
      "matrix": [
        1.0,
        0.0,
        0.0,
        0.0,
        0.0,
        3.828568672208042e-16,
        -1.0,
        0.0,
        0.0,
        1.0,
        3.828568672208042e-16,
        0.0,
        0.0,
        0.0,
        0.0,
        1.0
      ],
      "name": "Sketchfab_model"
    },
    {
      "children": [
        2
      ],
      "matrix": [
        0.009999999776482582,
        0.0,
        0.0,
        0.0,
        0.0,
        0.0,
        0.009999999776482582,
        0.0,
        0.0,
        -0.009999999776482582,
        0.0,
        0.0,
        0.0,
        0.0,
        0.0,
        1.0
      ],
      "name": "Waiting Chair.fbx"
    },
    {
      "children": [
        3
      ],
      "name": "RootNode"
    },
    {
      "children": [
        4
      ],
      "matrix": [
        100.0,
        0.0,
        0.0,
        0.0,
        0.0,
        -1.629206793918314e-05,
        -99.99999999999868,
        0.0,
        0.0,
        99.99999999999868,
        -1.629206793918314e-05,
        0.0,
        0.0,
        0.0,
        0.0,
        1.0
      ],
      "name": "Waiting Bench (3 Seats)"
    },
    {
      "mesh": 0,
      "name": "Waiting Bench (3 Seats)_Waiting Bench_0"
    }
  ],
  "samplers": [
    {
      "magFilter": 9729,
      "minFilter": 9987,
      "wrapS": 10497,
      "wrapT": 10497
    }
  ],
  "scene": 0,
  "scenes": [
    {
      "name": "Sketchfab_Scene",
      "nodes": [
        0
      ]
    }
  ],
  "textures": [
    {
      "sampler": 0,
      "source": 0
    },
    {
      "sampler": 0,
      "source": 1
    },
    {
      "sampler": 0,
      "source": 2
    }
  ]
}
