{
  "accessors": [
    {
      "bufferView": 2,
      "componentType": 5126,
      "count": 4066,
      "max": [
        0.25076279044151306,
        0.17933198809623718,
        0.3195922374725342
      ],
      "min": [
        -0.250762939453125,
        -0.08623714745044708,
        -0.3594973385334015
      ],
      "type": "VEC3"
    },
    {
      "bufferView": 2,
      "byteOffset": 48792,
      "componentType": 5126,
      "count": 4066,
      "max": [
        1.0,
        1.0,
        0.9998560547828674
      ],
      "min": [
        -1.0,
        -0.9999999403953552,
        -1.0
      ],
      "type": "VEC3"
    },
    {
      "bufferView": 3,
      "componentType": 5126,
      "count": 4066,
      "max": [
        1.0,
        0.9999997019767761,
        0.9999042749404907,
        1.0
      ],
      "min": [
        -1.0,
        -0.9998547434806824,
        -1.0,
        1.0
      ],
      "type": "VEC4"
    },
    {
      "bufferView": 1,
      "componentType": 5126,
      "count": 4066,
      "max": [
        0.9984595775604248,
        0.9921963214874268
      ],
      "min": [
        0.0015431515639647841,
        0.00154197309166193
      ],
      "type": "VEC2"
    },
    {
      "bufferView": 1,
      "byteOffset": 32528,
      "componentType": 5126,
      "count": 4066,
      "max": [
        0.9984595775604248,
        0.9921963214874268
      ],
      "min": [
        0.0015431515639647841,
        0.00154197309166193
      ],
      "type": "VEC2"
    },
    {
      "bufferView": 1,
      "byteOffset": 65056,
      "componentType": 5126,
      "count": 4066,
      "max": [
        0.9984595775604248,
        0.9921963214874268
      ],
      "min": [
        0.0015431515639647841,
        0.00154197309166193
      ],
      "type": "VEC2"
    },
    {
      "bufferView": 1,
      "byteOffset": 97584,
      "componentType": 5126,
      "count": 4066,
      "max": [
        0.9984595775604248,
        0.9921963214874268
      ],
      "min": [
        0.0015431515639647841,
        0.00154197309166193
      ],
      "type": "VEC2"
    },
    {
      "bufferView": 0,
      "componentType": 5125,
      "count": 18468,
      "type": "SCALAR"
    },
    {
      "bufferView": 2,
      "byteOffset": 97584,
      "componentType": 5126,
      "count": 31466,
      "max": [
        0.3133837580680847,
        0.031602177768945694,
        0.2925574779510498
      ],
      "min": [
        -0.3130054771900177,
        -0.09043465554714203,
        -0.16752508282661438
      ],
      "type": "VEC3"
    },
    {
      "bufferView": 2,
      "byteOffset": 475176,
      "componentType": 5126,
      "count": 31466,
      "max": [
        1.0,
        0.9999966621398926,
        0.999990701675415
      ],
      "min": [
        -1.0,
        -0.9999997615814209,
        -0.9999303221702576
      ],
      "type": "VEC3"
    },
    {
      "bufferView": 3,
      "byteOffset": 65056,
      "componentType": 5126,
      "count": 31466,
      "max": [
        1.0,
        0.9999974370002747,
        0.9999998807907104,
        1.0
      ],
      "min": [
        -1.0,
        -0.9999778866767883,
        -0.9998698234558105,
        -1.0
      ],
      "type": "VEC4"
    },
    {
      "bufferView": 1,
      "byteOffset": 130112,
      "componentType": 5126,
      "count": 31466,
      "max": [
        0.9992810487747192,
        0.9594253301620483
      ],
      "min": [
        0.0007057003094814718,
        0.0007077624322846532
      ],
      "type": "VEC2"
    },
    {
      "bufferView": 1,
      "byteOffset": 381840,
      "componentType": 5126,
      "count": 31466,
      "max": [
        0.9992810487747192,
        0.9594253301620483
      ],
      "min": [
        0.0007057003094814718,
        0.0007077624322846532
      ],
      "type": "VEC2"
    },
    {
      "bufferView": 1,
      "byteOffset": 633568,
      "componentType": 5126,
      "count": 31466,
      "max": [
        0.9992810487747192,
        0.9594253301620483
      ],
      "min": [
        0.0007057003094814718,
        0.0007077624322846532
      ],
      "type": "VEC2"
    },
    {
      "bufferView": 1,
      "byteOffset": 885296,
      "componentType": 5126,
      "count": 31466,
      "max": [
        0.9992810487747192,
        0.9594253301620483
      ],
      "min": [
        0.0007057003094814718,
        0.0007077624322846532
      ],
      "type": "VEC2"
    },
    {
      "bufferView": 0,
      "byteOffset": 73872,
      "componentType": 5125,
      "count": 84570,
      "type": "SCALAR"
    },
    {
      "bufferView": 2,
      "byteOffset": 852768,
      "componentType": 5126,
      "count": 6425,
      "max": [
        0.2233809381723404,
        0.3938901126384735,
        0.12787361443042755
      ],
      "min": [
        -0.22338320314884186,
        -0.04295980557799339,
        -0.2870757281780243
      ],
      "type": "VEC3"
    },
    {
      "bufferView": 2,
      "byteOffset": 929868,
      "componentType": 5126,
      "count": 6425,
      "max": [
        1.0,
        1.0,
        1.0
      ],
      "min": [
        -1.0,
        -1.0,
        -1.0
      ],
      "type": "VEC3"
    },
    {
      "bufferView": 3,
      "byteOffset": 568512,
      "componentType": 5126,
      "count": 6425,
      "max": [
        1.0,
        1.0,
        0.9999886751174927,
        1.0
      ],
      "min": [
        -1.0,
        -1.0,
        -0.9999297261238098,
        1.0
      ],
      "type": "VEC4"
    },
    {
      "bufferView": 1,
      "byteOffset": 1137024,
      "componentType": 5126,
      "count": 6425,
      "max": [
        0.9988662004470825,
        0.9989833831787109
      ],
      "min": [
        0.0010056635364890099,
        0.0010068040573969483
      ],
      "type": "VEC2"
    },
    {
      "bufferView": 1,
      "byteOffset": 1188424,
      "componentType": 5126,
      "count": 6425,
      "max": [
        0.9988662004470825,
        0.9989833831787109
      ],
      "min": [
        0.0010056635364890099,
        0.0010068040573969483
      ],
      "type": "VEC2"
    },
    {
      "bufferView": 1,
      "byteOffset": 1239824,
      "componentType": 5126,
      "count": 6425,
      "max": [
        0.9988662004470825,
        0.9989833831787109
      ],
      "min": [
        0.0010056635364890099,
        0.0010068040573969483
      ],
      "type": "VEC2"
    },
    {
      "bufferView": 1,
      "byteOffset": 1291224,
      "componentType": 5126,
      "count": 6425,
      "max": [
        0.9988662004470825,
        0.9989833831787109
      ],
      "min": [
        0.0010056635364890099,
        0.0010068040573969483
      ],
      "type": "VEC2"
    },
    {
      "bufferView": 0,
      "byteOffset": 412152,
      "componentType": 5125,
      "count": 30618,
      "type": "SCALAR"
    },
    {
      "bufferView": 2,
      "byteOffset": 1006968,
      "componentType": 5126,
      "count": 8334,
      "max": [
        0.2655050754547119,
        0.1404448002576828,
        0.20485316216945648
      ],
      "min": [
        -0.2655050754547119,
        -0.07293804734945297,
        -0.2101079523563385
      ],
      "type": "VEC3"
    },
    {
      "bufferView": 2,
      "byteOffset": 1106976,
      "componentType": 5126,
      "count": 8334,
      "max": [
        1.0,
        0.9999998211860657,
        1.0
      ],
      "min": [
        -1.0,
        -1.0,
        -1.0
      ],
      "type": "VEC3"
    },
    {
      "bufferView": 3,
      "byteOffset": 671312,
      "componentType": 5126,
      "count": 8334,
      "max": [
        1.0,
        0.9999997019767761,
        1.0,
        1.0
      ],
      "min": [
        -1.0,
        -0.999975860118866,
        -1.0,
        -1.0
      ],
      "type": "VEC4"
    },
    {
      "bufferView": 1,
      "byteOffset": 1342624,
      "componentType": 5126,
      "count": 8334,
      "max": [
        0.9980984330177307,
        0.9982414245605469
      ],
      "min": [
        0.0017557344399392605,
        0.001738449209369719
      ],
      "type": "VEC2"
    },
    {
      "bufferView": 1,
      "byteOffset": 1409296,
      "componentType": 5126,
      "count": 8334,
      "max": [
        0.9980984330177307,
        0.9982414245605469
      ],
      "min": [
        0.0017557344399392605,
        0.001738449209369719
      ],
      "type": "VEC2"
    },
    {
      "bufferView": 1,
      "byteOffset": 1475968,
      "componentType": 5126,
      "count": 8334,
      "max": [
        0.9980984330177307,
        0.9982414245605469
      ],
      "min": [
        0.0017557344399392605,
        0.001738449209369719
      ],
      "type": "VEC2"
    },
    {
      "bufferView": 1,
      "byteOffset": 1542640,
      "componentType": 5126,
      "count": 8334,
      "max": [
        0.9980984330177307,
        0.9982414245605469
      ],
      "min": [
        0.0017557344399392605,
        0.001738449209369719
      ],
      "type": "VEC2"
    },
    {
      "bufferView": 0,
      "byteOffset": 534624,
      "componentType": 5125,
      "count": 30228,
      "type": "SCALAR"
    },
    {
      "bufferView": 2,
      "byteOffset": 1206984,
      "componentType": 5126,
      "count": 10014,
      "max": [
        0.26288557052612305,
        0.43748342990875244,
        0.18464308977127075
      ],
      "min": [
        -0.26288557052612305,
        -0.3201451897621155,
        -0.43777996301651
      ],
      "type": "VEC3"
    },
    {
      "bufferView": 2,
      "byteOffset": 1327152,
      "componentType": 5126,
      "count": 10014,
      "max": [
        1.0,
        1.0,
        0.999995768070221
      ],
      "min": [
        -1.0,
        -1.0,
        -1.0
      ],
      "type": "VEC3"
    },
    {
      "bufferView": 3,
      "byteOffset": 804656,
      "componentType": 5126,
      "count": 10014,
      "max": [
        1.0,
        1.0,
        1.0,
        1.0
      ],
      "min": [
        -1.0,
        -1.0,
        -1.0,
        -1.0
      ],
      "type": "VEC4"
    },
    {
      "bufferView": 1,
      "byteOffset": 1609312,
      "componentType": 5126,
      "count": 10014,
      "max": [
        0.9984707236289978,
        0.9981507062911987
      ],
      "min": [
        0.0015198620967566967,
        0.0015200752532109618
      ],
      "type": "VEC2"
    },
    {
      "bufferView": 1,
      "byteOffset": 1689424,
      "componentType": 5126,
      "count": 10014,
      "max": [
        0.9984707236289978,
        0.9981507062911987
      ],
      "min": [
        0.0015198620967566967,
        0.0015200752532109618
      ],
      "type": "VEC2"
    },
    {
      "bufferView": 1,
      "byteOffset": 1769536,
      "componentType": 5126,
      "count": 10014,
      "max": [
        0.9984707236289978,
        0.9981507062911987
      ],
      "min": [
        0.0015198620967566967,
        0.0015200752532109618
      ],
      "type": "VEC2"
    },
    {
      "bufferView": 1,
      "byteOffset": 1849648,
      "componentType": 5126,
      "count": 10014,
      "max": [
        0.9984707236289978,
        0.9981507062911987
      ],
      "min": [
        0.0015198620967566967,
        0.0015200752532109618
      ],
      "type": "VEC2"
    },
    {
      "bufferView": 0,
      "byteOffset": 655536,
      "componentType": 5125,
      "count": 37455,
      "type": "SCALAR"
    },
    {
      "bufferView": 2,
      "byteOffset": 1447320,
      "componentType": 5126,
      "count": 16911,
      "max": [
        0.42421743273735046,
        0.07349736243486404,
        0.07349735498428345
      ],
      "min": [
        -0.04021522402763367,
        -0.07257389277219772,
        -0.5614221692085266
      ],
      "type": "VEC3"
    },
    {
      "bufferView": 2,
      "byteOffset": 1650252,
      "componentType": 5126,
      "count": 16911,
      "max": [
        0.9999969601631165,
        1.0,
        0.9994959235191345
      ],
      "min": [
        -0.9999969005584717,
        -0.9994958639144897,
        -0.9994961023330688
      ],
      "type": "VEC3"
    },
    {
      "bufferView": 3,
      "byteOffset": 964880,
      "componentType": 5126,
      "count": 16911,
      "max": [
        0.9994940161705017,
        0.9999991655349731,
        0.9999960660934448,
        1.0
      ],
      "min": [
        -1.0,
        -0.9999991655349731,
        -1.0,
        1.0
      ],
      "type": "VEC4"
    },
    {
      "bufferView": 1,
      "byteOffset": 1929760,
      "componentType": 5126,
      "count": 16911,
      "max": [
        0.9992377758026123,
        0.9933136701583862
      ],
      "min": [
        0.0007600130047649145,
        0.0007638785755261779
      ],
      "type": "VEC2"
    },
    {
      "bufferView": 1,
      "byteOffset": 2065048,
      "componentType": 5126,
      "count": 16911,
      "max": [
        0.9992377758026123,
        0.9933136701583862
      ],
      "min": [
        0.0007600130047649145,
        0.0007638785755261779
      ],
      "type": "VEC2"
    },
    {
      "bufferView": 1,
      "byteOffset": 2200336,
      "componentType": 5126,
      "count": 16911,
      "max": [
        0.9992377758026123,
        0.9933136701583862
      ],
      "min": [
        0.0007600130047649145,
        0.0007638785755261779
      ],
      "type": "VEC2"
    },
    {
      "bufferView": 1,
      "byteOffset": 2335624,
      "componentType": 5126,
      "count": 16911,
      "max": [
        0.9992377758026123,
        0.9933136701583862
      ],
      "min": [
        0.0007600130047649145,
        0.0007638785755261779
      ],
      "type": "VEC2"
    },
    {
      "bufferView": 0,
      "byteOffset": 805356,
      "componentType": 5125,
      "count": 25728,
      "type": "SCALAR"
    }
  ],
  "asset": {
    "extras": {
      "author": "Liuuzaki (https://sketchfab.com/liuuzaki)",
      "license": "CC-BY-4.0 (http://creativecommons.org/licenses/by/4.0/)",
      "source": "https://sketchfab.com/3d-models/ultrasound-machine-0d4593f431f94de9a94815ec2c7715e9",
      "title": "Ultrasound Machine"
    },
    "generator": "Sketchfab-15.27.0",
    "version": "2.0"
  },
  "bufferViews": [
    {
      "buffer": 0,
      "byteLength": 908268,
      "name": "floatBufferViews",
      "target": 34963
    },
    {
      "buffer": 0,
      "byteLength": 2470912,
      "byteOffset": 908268,
      "byteStride": 8,
      "name": "floatBufferViews",
      "target": 34962
    },
    {
      "buffer": 0,
      "byteLength": 1853184,
      "byteOffset": 3379180,
      "byteStride": 12,
      "name": "floatBufferViews",
      "target": 34962
    },
    {
      "buffer": 0,
      "byteLength": 1235456,
      "byteOffset": 5232364,
      "byteStride": 16,
      "name": "floatBufferViews",
      "target": 34962
    }
  ],
  "buffers": [
    {
      "byteLength": 6467820,
      "uri": "scene.bin"
    }
  ],
  "images": [
    {
      "uri": "textures/Lower_Case_baseColor.png"
    },
    {
      "uri": "textures/Lower_Case_metallicRoughness.png"
    },
    {
      "uri": "textures/Lower_Case_normal.png"
    },
    {
      "uri": "textures/Operator_Panel_baseColor.png"
    },
    {
      "uri": "textures/Operator_Panel_metallicRoughness.png"
    },
    {
      "uri": "textures/Operator_Panel_normal.png"
    },
    {
      "uri": "textures/Screen_1_baseColor.png"
    },
    {
      "uri": "textures/Screen_1_metallicRoughness.png"
    },
    {
      "uri": "textures/Screen_1_normal.png"
    },
    {
      "uri": "textures/Screen_2_baseColor.png"
    },
    {
      "uri": "textures/Screen_2_metallicRoughness.png"
    },
    {
      "uri": "textures/Screen_2_normal.png"
    },
    {
      "uri": "textures/Upper_Case_baseColor.png"
    },
    {
      "uri": "textures/Upper_Case_metallicRoughness.png"
    },
    {
      "uri": "textures/Upper_Case_normal.png"
    },
    {
      "uri": "textures/Wheels_baseColor.png"
    },
    {
      "uri": "textures/Wheels_metallicRoughness.png"
    },
    {
      "uri": "textures/Wheels_normal.png"
    }
  ],
  "materials": [
    {
      "doubleSided": true,
      "name": "Lower_Case",
      "normalTexture": {
        "index": 2
      },
      "pbrMetallicRoughness": {
        "baseColorTexture": {
          "index": 0
        },
        "metallicRoughnessTexture": {
          "index": 1
        }
      }
    },
    {
      "doubleSided": true,
      "name": "Operator_Panel",
      "normalTexture": {
        "index": 5,
        "texCoord": 2
      },
      "pbrMetallicRoughness": {
        "baseColorTexture": {
          "index": 3
        },
        "metallicRoughnessTexture": {
          "index": 4,
          "texCoord": 1
        }
      }
    },
    {
      "doubleSided": true,
      "name": "Screen_1",
      "normalTexture": {
        "index": 8
      },
      "pbrMetallicRoughness": {
        "baseColorTexture": {
          "index": 6
        },
        "metallicRoughnessTexture": {
          "index": 7
        }
      }
    },
    {
      "doubleSided": true,
      "name": "Screen_2",
      "normalTexture": {
        "index": 11
      },
      "pbrMetallicRoughness": {
        "baseColorTexture": {
          "index": 9
        },
        "metallicRoughnessTexture": {
          "index": 10
        }
      }
    },
    {
      "doubleSided": true,
      "name": "Upper_Case",
      "normalTexture": {
        "index": 14
      },
      "pbrMetallicRoughness": {
        "baseColorTexture": {
          "index": 12
        },
        "metallicRoughnessTexture": {
          "index": 13
        }
      }
    },
    {
      "doubleSided": true,
      "name": "Wheels",
      "normalTexture": {
        "index": 17
      },
      "pbrMetallicRoughness": {
        "baseColorTexture": {
          "index": 15
        },
        "metallicRoughnessTexture": {
          "index": 16
        }
      }
    }
  ],
  "meshes": [
    {
      "name": "Object_0",
      "primitives": [
        {
          "attributes": {
            "NORMAL": 1,
            "POSITION": 0,
            "TANGENT": 2,
            "TEXCOORD_0": 3,
            "TEXCOORD_1": 4,
            "TEXCOORD_2": 5,
            "TEXCOORD_3": 6
          },
          "indices": 7,
          "material": 0,
          "mode": 4
        }
      ]
    },
    {
      "name": "Object_1",
      "primitives": [
        {
          "attributes": {
            "NORMAL": 9,
            "POSITION": 8,
            "TANGENT": 10,
            "TEXCOORD_0": 11,
            "TEXCOORD_1": 12,
            "TEXCOORD_2": 13,
            "TEXCOORD_3": 14
          },
          "indices": 15,
          "material": 1,
          "mode": 4
        }
      ]
    },
    {
      "name": "Object_2",
      "primitives": [
        {
          "attributes": {
            "NORMAL": 17,
            "POSITION": 16,
            "TANGENT": 18,
            "TEXCOORD_0": 19,
            "TEXCOORD_1": 20,
            "TEXCOORD_2": 21,
            "TEXCOORD_3": 22
          },
          "indices": 23,
          "material": 2,
          "mode": 4
        }
      ]
    },
    {
      "name": "Object_3",
      "primitives": [
        {
          "attributes": {
            "NORMAL": 25,
            "POSITION": 24,
            "TANGENT": 26,
            "TEXCOORD_0": 27,
            "TEXCOORD_1": 28,
            "TEXCOORD_2": 29,
            "TEXCOORD_3": 30
          },
          "indices": 31,
          "material": 3,
          "mode": 4
        }
      ]
    },
    {
      "name": "Object_4",
      "primitives": [
        {
          "attributes": {
            "NORMAL": 33,
            "POSITION": 32,
            "TANGENT": 34,
            "TEXCOORD_0": 35,
            "TEXCOORD_1": 36,
            "TEXCOORD_2": 37,
            "TEXCOORD_3": 38
          },
          "indices": 39,
          "material": 4,
          "mode": 4
        }
      ]
    },
    {
      "name": "Object_5",
      "primitives": [
        {
          "attributes": {
            "NORMAL": 41,
            "POSITION": 40,
            "TANGENT": 42,
            "TEXCOORD_0": 43,
            "TEXCOORD_1": 44,
            "TEXCOORD_2": 45,
            "TEXCOORD_3": 46
          },
          "indices": 47,
          "material": 5,
          "mode": 4
        }
      ]
    }
  ],
  "nodes": [
    {
      "children": [
        1
      ],
      "matrix": [
        1.0,
        0.0,
        0.0,
        0.0,
        0.0,
        2.220446049250313e-16,
        -1.0,
        0.0,
        0.0,
        1.0,
        2.220446049250313e-16,
        0.0,
        0.0,
        0.0,
        0.0,
        1.0
      ],
      "name": "Sketchfab_model"
    },
    {
      "children": [
        2
      ],
      "name": "root"
    },
    {
      "children": [
        3
      ],
      "matrix": [
        1.0,
        0.0,
        0.0,
        0.0,
        0.0,
        2.220446049250313e-16,
        1.0,
        0.0,
        0.0,
        -1.0,
        2.220446049250313e-16,
        0.0,
        0.0,
        0.0,
        0.0,
        1.0
      ],
      "name": "GLTF_SceneRootNode"
    },
    {
      "children": [
        4,
        6,
        8,
        10,
        12,
        14
      ],
      "name": "LOGIQ Ultrasound Machine_6"
    },
    {
      "children": [
        5
      ],
      "matrix": [
        1.0,
        0.0,
        0.0,
        0.0,
        0.0,
        1.0,
        0.0,
        0.0,
        0.0,
        0.0,
        1.0,
        0.0,
        0.0028923749923706055,
        0.162040114402771,
        0.03264148533344269,
        1.0
      ],
      "name": "Lower Case_0"
    },
    {
      "mesh": 0,
      "name": "Object_5"
    },
    {
      "children": [
        7
      ],
      "matrix": [
        1.0,
        0.0,
        0.0,
        0.0,
        0.0,
        1.0,
        0.0,
        0.0,
        0.0,
        0.0,
        1.0,
        0.0,
        0.0029254555702209473,
        0.7797231674194336,
        0.1562575101852417,
        1.0
      ],
      "name": "Operator Panel_1"
    },
    {
      "mesh": 1,
      "name": "Object_7"
    },
    {
      "children": [
        9
      ],
      "matrix": [
        1.0,
        0.0,
        0.0,
        0.0,
        0.0,
        1.0,
        0.0,
        0.0,
        0.0,
        0.0,
        1.0,
        0.0,
        0.0029254555702209473,
        1.0273303985595703,
        -0.11358028650283813,
        1.0
      ],
      "name": "Screen 1_2"
    },
    {
      "mesh": 2,
      "name": "Object_9"
    },
    {
      "children": [
        11
      ],
      "matrix": [
        1.0,
        0.0,
        0.0,
        0.0,
        0.0,
        1.0,
        0.0,
        0.0,
        0.0,
        0.0,
        1.0,
        0.0,
        0.0029254555702209473,
        0.8531131744384766,
        -0.05736580491065979,
        1.0
      ],
      "name": "Screen 2_3"
    },
    {
      "mesh": 3,
      "name": "Object_11"
    },
    {
      "children": [
        13
      ],
      "matrix": [
        1.0,
        0.0,
        0.0,
        0.0,
        0.0,
        1.0,
        0.0,
        0.0,
        0.0,
        0.0,
        1.0,
        0.0,
        0.00289231538772583,
        0.5086947679519653,
        0.00658261775970459,
        1.0
      ],
      "name": "Upper Case_4"
    },
    {
      "mesh": 4,
      "name": "Object_13"
    },
    {
      "children": [
        15
      ],
      "matrix": [
        1.0,
        0.0,
        0.0,
        0.0,
        0.0,
        1.0,
        0.0,
        0.0,
        0.0,
        0.0,
        1.0,
        0.0,
        -0.188068687915802,
        0.07326334714889526,
        0.21478933095932007,
        1.0
      ],
      "name": "Wheels_5"
    },
    {
      "mesh": 5,
      "name": "Object_15"
    }
  ],
  "samplers": [
    {
      "magFilter": 9729,
      "minFilter": 9987,
      "wrapS": 10497,
      "wrapT": 10497
    }
  ],
  "scene": 0,
  "scenes": [
    {
      "name": "Sketchfab_Scene",
      "nodes": [
        0
      ]
    }
  ],
  "textures": [
    {
      "sampler": 0,
      "source": 0
    },
    {
      "sampler": 0,
      "source": 1
    },
    {
      "sampler": 0,
      "source": 2
    },
    {
      "sampler": 0,
      "source": 3
    },
    {
      "sampler": 0,
      "source": 4
    },
    {
      "sampler": 0,
      "source": 5
    },
    {
      "sampler": 0,
      "source": 6
    },
    {
      "sampler": 0,
      "source": 7
    },
    {
      "sampler": 0,
      "source": 8
    },
    {
      "sampler": 0,
      "source": 9
    },
    {
      "sampler": 0,
      "source": 10
    },
    {
      "sampler": 0,
      "source": 11
    },
    {
      "sampler": 0,
      "source": 12
    },
    {
      "sampler": 0,
      "source": 13
    },
    {
      "sampler": 0,
      "source": 14
    },
    {
      "sampler": 0,
      "source": 15
    },
    {
      "sampler": 0,
      "source": 16
    },
    {
      "sampler": 0,
      "source": 17
    }
  ]
}
