{"accessors" : [{"bufferView" : 0, "byteOffset" : 0, "componentType" : 5123, "count" : 360, "type" : "SCALAR", "max" : [317], "min" : [0]}, {"bufferView" : 1, "byteOffset" : 0, "componentType" : 5126, "count" : 318, "type" : "VEC3", "max" : [0, 0.46000000834465027, 0.9800000190734863], "min" : [-0.9800000190734863, 0.05000000074505806, 0], "name" : "POSITION"}, {"bufferView" : 1, "byteOffset" : 12, "componentType" : 5126, "count" : 318, "type" : "VEC3", "max" : [1.0000044107437134, 1.0000044107437134, 1.0000044107437134], "min" : [-1.0000044107437134, -1.0000044107437134, -1.0000044107437134], "name" : "NORMAL"}, {"bufferView" : 1, "byteOffset" : 24, "componentType" : 5126, "count" : 318, "type" : "VEC2", "max" : [38.582679748535156, 2], "min" : [-38.582679748535156, -36.582679748535156], "name" : "TEXCOORD_0"}, {"bufferView" : 0, "byteOffset" : 720, "componentType" : 5123, "count" : 210, "type" : "SCALAR", "max" : [209], "min" : [0]}, {"bufferView" : 2, "byteOffset" : 0, "componentType" : 5126, "count" : 210, "type" : "VEC3", "max" : [0, 0.05000000074505806, 0.9800000190734863], "min" : [-0.9800000190734863, 0, 0], "name" : "POSITION"}, {"bufferView" : 2, "byteOffset" : 12, "componentType" : 5126, "count" : 210, "type" : "VEC3", "max" : [1.0000044107437134, 0, 1.0000044107437134], "min" : [-1.0000044107437134, -1.0000044107437134, -1.0000044107437134], "name" : "NORMAL"}, {"bufferView" : 2, "byteOffset" : 24, "componentType" : 5126, "count" : 210, "type" : "VEC2", "max" : [38.582679748535156, 2], "min" : [-38.582679748535156, -36.582679748535156], "name" : "TEXCOORD_0"}, {"bufferView" : 0, "byteOffset" : 1140, "componentType" : 5123, "count" : 210, "type" : "SCALAR", "max" : [209], "min" : [0]}, {"bufferView" : 3, "byteOffset" : 0, "componentType" : 5126, "count" : 210, "type" : "VEC3", "max" : [0, 0.05000000074505806, 0.9800000190734863], "min" : [-0.9800000190734863, 0, 0], "name" : "POSITION"}, {"bufferView" : 3, "byteOffset" : 12, "componentType" : 5126, "count" : 210, "type" : "VEC3", "max" : [1.0000044107437134, 0, 1.0000044107437134], "min" : [-1.0000044107437134, -1.0000044107437134, -1.0000044107437134], "name" : "NORMAL"}, {"bufferView" : 3, "byteOffset" : 24, "componentType" : 5126, "count" : 210, "type" : "VEC2", "max" : [38.582679748535156, 2], "min" : [-38.582679748535156, -36.582679748535156], "name" : "TEXCOORD_0"}, {"bufferView" : 0, "byteOffset" : 1560, "componentType" : 5123, "count" : 360, "type" : "SCALAR", "max" : [317], "min" : [0]}, {"bufferView" : 4, "byteOffset" : 0, "componentType" : 5126, "count" : 318, "type" : "VEC3", "max" : [0, 0.46000000834465027, 0.9800000190734863], "min" : [-0.9800000190734863, 0.05000000074505806, 0], "name" : "POSITION"}, {"bufferView" : 4, "byteOffset" : 12, "componentType" : 5126, "count" : 318, "type" : "VEC3", "max" : [1.0000044107437134, 1.0000044107437134, 1.0000044107437134], "min" : [-1.0000044107437134, -1.0000044107437134, -1.0000044107437134], "name" : "NORMAL"}, {"bufferView" : 4, "byteOffset" : 24, "componentType" : 5126, "count" : 318, "type" : "VEC2", "max" : [38.582679748535156, 2], "min" : [-38.582679748535156, -36.582679748535156], "name" : "TEXCOORD_0"}], "asset" : {"generator" : "Aspose.3D 24.1.0", "version" : "2.0"}, "buffers" : [{"uri" : "data:application/octet-stream;base64,", "byteLength" : 38780}], "bufferViews" : [{"buffer" : 0, "byteOffset" : 0, "byteLength" : 2280, "target" : 34963}, {"buffer" : 0, "byteOffset" : 2284, "byteLength" : 11520, "byteStride" : 32, "target" : 34962}, {"buffer" : 0, "byteOffset" : 13808, "byteLength" : 6720, "byteStride" : 32, "target" : 34962}, {"buffer" : 0, "byteOffset" : 20532, "byteLength" : 6720, "byteStride" : 32, "target" : 34962}, {"buffer" : 0, "byteOffset" : 27256, "byteLength" : 11520, "byteStride" : 32, "target" : 34962}], "materials" : [{"name" : "carpet", "pbrMetallicRoughness" : {"baseColorFactor" : [0.88, 0.11, 0.09, 1], "metallicFactor" : 0, "roughnessFactor" : 1}, "emissiveFactor" : [0, 0, 0], "alphaMode" : "OPAQUE", "doubleSided" : false}, {"name" : "wood", "pbrMetallicRoughness" : {"baseColorFactor" : [0.79, 0.33, 0.13, 1], "metallicFactor" : 0, "roughnessFactor" : 1}, "emissiveFactor" : [0, 0, 0], "alphaMode" : "OPAQUE", "doubleSided" : false}, {"name" : "wood", "pbrMetallicRoughness" : {"baseColorFactor" : [0.79, 0.33, 0.13, 1], "metallicFactor" : 0, "roughnessFactor" : 1}, "emissiveFactor" : [0, 0, 0], "alphaMode" : "OPAQUE", "doubleSided" : false}, {"name" : "carpet", "pbrMetallicRoughness" : {"baseColorFactor" : [0.88, 0.11, 0.09, 1], "metallicFactor" : 0, "roughnessFactor" : 1}, "emissiveFactor" : [0, 0, 0], "alphaMode" : "OPAQUE", "doubleSided" : false}], "meshes" : [{"primitives" : [{"attributes" : {"POSITION" : 1, "NORMAL" : 2, "TEXCOORD_0" : 3}, "indices" : 0, "material" : 0, "mode" : 4}, {"attributes" : {"POSITION" : 5, "NORMAL" : 6, "TEXCOORD_0" : 7}, "indices" : 4, "material" : 1, "mode" : 4}]}, {"primitives" : [{"attributes" : {"POSITION" : 9, "NORMAL" : 10, "TEXCOORD_0" : 11}, "indices" : 8, "material" : 2, "mode" : 4}, {"attributes" : {"POSITION" : 13, "NORMAL" : 14, "TEXCOORD_0" : 15}, "indices" : 12, "material" : 3, "mode" : 4}]}], "nodes" : [{"mesh" : 0, "name" : "loungeSofaCorner"}, {"mesh" : 1, "name" : "loungeSofaCorner_1"}], "scene" : 0, "scenes" : [{"nodes" : [0, 1]}]}