{
  "accessors": [
    {
      "bufferView": 2,
      "componentType": 5126,
      "count": 8625,
      "max": [
        0.5296204686164856,
        0.2791951298713684,
        0.9131549000740051
      ],
      "min": [
        -0.5296204686164856,
        -0.3252601623535156,
        -0.0006124675273895264
      ],
      "type": "VEC3"
    },
    {
      "bufferView": 2,
      "byteOffset": 103500,
      "componentType": 5126,
      "count": 8625,
      "max": [
        1.0,
        1.0,
        1.0
      ],
      "min": [
        -1.0,
        -1.0,
        -1.0
      ],
      "type": "VEC3"
    },
    {
      "bufferView": 3,
      "componentType": 5126,
      "count": 8625,
      "max": [
        1.0,
        1.0,
        1.0,
        1.0
      ],
      "min": [
        -1.0,
        -1.0,
        -1.0,
        1.0
      ],
      "type": "VEC4"
    },
    {
      "bufferView": 1,
      "componentType": 5126,
      "count": 8625,
      "max": [
        0.9962888360023499,
        0.996109664440155
      ],
      "min": [
        0.003711226861923933,
        0.003711246419698
      ],
      "type": "VEC2"
    },
    {
      "bufferView": 1,
      "byteOffset": 69000,
      "componentType": 5126,
      "count": 8625,
      "max": [
        0.9962888360023499,
        0.996109664440155
      ],
      "min": [
        0.003711226861923933,
        0.003711246419698
      ],
      "type": "VEC2"
    },
    {
      "bufferView": 1,
      "byteOffset": 138000,
      "componentType": 5126,
      "count": 8625,
      "max": [
        0.9962888360023499,
        0.996109664440155
      ],
      "min": [
        0.003711226861923933,
        0.003711246419698
      ],
      "type": "VEC2"
    },
    {
      "bufferView": 0,
      "componentType": 5125,
      "count": 28776,
      "type": "SCALAR"
    }
  ],
  "asset": {
    "extras": {
      "author": "creative_beast (https://sketchfab.com/creative_beast)",
      "license": "CC-BY-4.0 (http://creativecommons.org/licenses/by/4.0/)",
      "source": "https://sketchfab.com/3d-models/hospital-trolley-6fa14ba57e324d288b5a42632f19d97f",
      "title": "Hospital Trolley"
    },
    "generator": "Sketchfab-15.50.0",
    "version": "2.0"
  },
  "bufferViews": [
    {
      "buffer": 0,
      "byteLength": 115104,
      "name": "floatBufferViews",
      "target": 34963
    },
    {
      "buffer": 0,
      "byteLength": 207000,
      "byteOffset": 115104,
      "byteStride": 8,
      "name": "floatBufferViews",
      "target": 34962
    },
    {
      "buffer": 0,
      "byteLength": 207000,
      "byteOffset": 322104,
      "byteStride": 12,
      "name": "floatBufferViews",
      "target": 34962
    },
    {
      "buffer": 0,
      "byteLength": 138000,
      "byteOffset": 529104,
      "byteStride": 16,
      "name": "floatBufferViews",
      "target": 34962
    }
  ],
  "buffers": [
    {
      "byteLength": 667104,
      "uri": "scene.bin"
    }
  ],
  "images": [
    {
      "uri": "textures/Trolley_baseColor.png"
    },
    {
      "uri": "textures/Trolley_metallicRoughness.png"
    },
    {
      "uri": "textures/Trolley_normal.png"
    }
  ],
  "materials": [
    {
      "doubleSided": true,
      "name": "Trolley",
      "normalTexture": {
        "index": 2
      },
      "pbrMetallicRoughness": {
        "baseColorTexture": {
          "index": 0
        },
        "metallicRoughnessTexture": {
          "index": 1
        }
      }
    }
  ],
  "meshes": [
    {
      "name": "Trolley_Trolley_0",
      "primitives": [
        {
          "attributes": {
            "NORMAL": 1,
            "POSITION": 0,
            "TANGENT": 2,
            "TEXCOORD_0": 3,
            "TEXCOORD_1": 4,
            "TEXCOORD_2": 5
          },
          "indices": 6,
          "material": 0,
          "mode": 4
        }
      ]
    }
  ],
  "nodes": [
    {
      "children": [
        1
      ],
      "matrix": [
        1.0,
        0.0,
        0.0,
        0.0,
        0.0,
        2.220446049250313e-16,
        -1.0,
        0.0,
        0.0,
        1.0,
        2.220446049250313e-16,
        0.0,
        0.0,
        0.0,
        0.0,
        1.0
      ],
      "name": "Sketchfab_model"
    },
    {
      "children": [
        2
      ],
      "matrix": [
        0.009999999776482582,
        0.0,
        0.0,
        0.0,
        0.0,
        0.0,
        0.009999999776482582,
        0.0,
        0.0,
        -0.009999999776482582,
        0.0,
        0.0,
        0.0,
        0.0,
        0.0,
        1.0
      ],
      "name": "Trolley.fbx"
    },
    {
      "children": [
        3
      ],
      "name": "RootNode"
    },
    {
      "children": [
        4
      ],
      "matrix": [
        100.0,
        0.0,
        0.0,
        0.0,
        0.0,
        -1.629206793918314e-05,
        -99.99999999999868,
        0.0,
        0.0,
        99.99999999999868,
        -1.629206793918314e-05,
        0.0,
        0.0,
        0.0,
        0.0,
        1.0
      ],
      "name": "Trolley"
    },
    {
      "mesh": 0,
      "name": "Trolley_Trolley_0"
    }
  ],
  "samplers": [
    {
      "magFilter": 9729,
      "minFilter": 9987,
      "wrapS": 10497,
      "wrapT": 10497
    }
  ],
  "scene": 0,
  "scenes": [
    {
      "name": "Sketchfab_Scene",
      "nodes": [
        0
      ]
    }
  ],
  "textures": [
    {
      "sampler": 0,
      "source": 0
    },
    {
      "sampler": 0,
      "source": 1
    },
    {
      "sampler": 0,
      "source": 2
    }
  ]
}
