{
	"asset":{
		"generator":"Khronos glTF Blender I/O v4.0.44",
		"version":"2.0"
	},
	"scene":0,
	"scenes":[
		{
			"name":"Scene",
			"nodes":[
				0,
				5,
				6,
				7,
				57,
				73,
				76,
				77,
				78,
				79,
				80,
				81,
				82,
				83,
				84,
				85
			]
		}
	],
	"nodes":[
		{
			"mesh":0,
			"name":"Cube"
		},
		{
			"mesh":1,
			"name":"Cork University Hospital",
			"translation":[
				19.381439208984375,
				0,
				60.748016357421875
			]
		},
		{
			"mesh":2,
			"name":"Cork University Hospital Cardiac & Renal Centre",
			"translation":[
				-78.03553009033203,
				0,
				97.61646270751953
			]
		},
		{
			"mesh":3,
			"name":"CUH Accident & Emergency",
			"translation":[
				97.83126068115234,
				0,
				-10.68661880493164
			]
		},
		{
			"mesh":4,
			"name":"element",
			"translation":[
				-110.0948257446289,
				0,
				-42.1457633972168
			]
		},
		{
			"children":[
				1,
				2,
				3,
				4
			],
			"name":"map_9.osm_buildings"
		},
		{
			"name":"map_9.osm_roads_secondary",
			"translation":[
				0,
				0.30000001192092896,
				0
			]
		},
		{
			"name":"map_9.osm_roads_residential",
			"translation":[
				0,
				0.30000001192092896,
				0
			]
		},
		{
			"name":"element.067"
		},
		{
			"name":"element.068"
		},
		{
			"name":"element.069"
		},
		{
			"name":"element.072"
		},
		{
			"name":"element.073"
		},
		{
			"name":"element.074"
		},
		{
			"name":"element.075"
		},
		{
			"name":"element.076"
		},
		{
			"name":"element.077"
		},
		{
			"name":"element.078"
		},
		{
			"name":"element.079"
		},
		{
			"name":"element.097"
		},
		{
			"name":"element.099"
		},
		{
			"name":"element.100"
		},
		{
			"name":"element.105"
		},
		{
			"name":"element.107"
		},
		{
			"name":"element.108"
		},
		{
			"name":"element.110"
		},
		{
			"name":"element.111"
		},
		{
			"name":"element.112"
		},
		{
			"name":"element.113"
		},
		{
			"name":"element.114"
		},
		{
			"name":"element.116"
		},
		{
			"name":"element.117"
		},
		{
			"name":"element.118"
		},
		{
			"name":"element.126"
		},
		{
			"name":"element.128"
		},
		{
			"name":"element.131"
		},
		{
			"name":"element.132"
		},
		{
			"name":"element.133"
		},
		{
			"name":"element.135"
		},
		{
			"name":"element.140"
		},
		{
			"name":"element.142"
		},
		{
			"name":"element.143"
		},
		{
			"name":"element.144"
		},
		{
			"name":"element.145"
		},
		{
			"name":"element.146"
		},
		{
			"name":"element.147"
		},
		{
			"name":"element.148"
		},
		{
			"name":"element.149"
		},
		{
			"name":"element.180"
		},
		{
			"name":"element.181"
		},
		{
			"name":"element.182"
		},
		{
			"name":"element.183"
		},
		{
			"name":"element.184"
		},
		{
			"name":"element.185"
		},
		{
			"name":"element.186"
		},
		{
			"name":"element.187"
		},
		{
			"name":"element.189"
		},
		{
			"children":[
				8,
				9,
				10,
				11,
				12,
				13,
				14,
				15,
				16,
				17,
				18,
				19,
				20,
				21,
				22,
				23,
				24,
				25,
				26,
				27,
				28,
				29,
				30,
				31,
				32,
				33,
				34,
				35,
				36,
				37,
				38,
				39,
				40,
				41,
				42,
				43,
				44,
				45,
				46,
				47,
				48,
				49,
				50,
				51,
				52,
				53,
				54,
				55,
				56
			],
			"name":"map_9.osm_roads_service",
			"translation":[
				0,
				0.30000001192092896,
				0
			]
		},
		{
			"name":"element.121"
		},
		{
			"name":"element.124"
		},
		{
			"name":"element.125"
		},
		{
			"name":"element.127"
		},
		{
			"name":"element.129"
		},
		{
			"name":"element.130"
		},
		{
			"name":"element.139"
		},
		{
			"name":"element.178"
		},
		{
			"name":"element.193"
		},
		{
			"name":"element.198"
		},
		{
			"name":"element.199"
		},
		{
			"name":"element.200"
		},
		{
			"name":"element.201"
		},
		{
			"name":"element.202"
		},
		{
			"name":"element.211"
		},
		{
			"children":[
				58,
				59,
				60,
				61,
				62,
				63,
				64,
				65,
				66,
				67,
				68,
				69,
				70,
				71,
				72
			],
			"name":"map_9.osm_paths_footway",
			"translation":[
				0,
				0.30000001192092896,
				0
			]
		},
		{
			"name":"element.120"
		},
		{
			"name":"element.122"
		},
		{
			"children":[
				74,
				75
			],
			"name":"map_9.osm_paths_steps",
			"translation":[
				0,
				0.30000001192092896,
				0
			]
		},
		{
			"name":"map_9.osm_forest",
			"translation":[
				0,
				0.10000000149011612,
				0
			]
		},
		{
			"name":"map_9.osm_vegetation"
		},
		{
			"name":"map_9.osm_paths_cycleway",
			"translation":[
				0,
				0.30000001192092896,
				0
			]
		},
		{
			"name":"profile_roads_secondary",
			"translation":[
				0,
				0,
				-11.940256118774414
			]
		},
		{
			"name":"profile_roads_residential",
			"translation":[
				0,
				0,
				-6.9708662033081055
			]
		},
		{
			"name":"profile_roads_service",
			"translation":[
				0,
				0,
				-3.567683458328247
			]
		},
		{
			"name":"profile_paths_footway",
			"translation":[
				0,
				0,
				-4.489185333251953
			]
		},
		{
			"name":"profile_paths_steps",
			"translation":[
				0,
				0,
				-0.9678186178207397
			]
		},
		{
			"name":"profile_paths_cycleway",
			"translation":[
				0,
				0,
				-0.2683899998664856
			]
		}
	],
	"materials":[
		{
			"doubleSided":true,
			"name":"Material.001",
			"pbrMetallicRoughness":{
				"baseColorFactor":[
					0.800000011920929,
					0.800000011920929,
					0.800000011920929,
					1
				],
				"metallicFactor":0,
				"roughnessFactor":0.5
			}
		},
		{
			"doubleSided":true,
			"name":"wall",
			"pbrMetallicRoughness":{
				"baseColorFactor":[
					1,
					0.5,
					0.20000000298023224,
					1
				],
				"metallicFactor":0,
				"roughnessFactor":0.4000000059604645
			}
		},
		{
			"doubleSided":true,
			"name":"roof",
			"pbrMetallicRoughness":{
				"baseColorFactor":[
					0.28999999165534973,
					0.25,
					0.20999999344348907,
					1
				],
				"metallicFactor":0,
				"roughnessFactor":0.4000000059604645
			}
		}
	],
	"meshes":[
		{
			"name":"Cube.001",
			"primitives":[
				{
					"attributes":{
						"POSITION":0,
						"NORMAL":1,
						"TEXCOORD_0":2
					},
					"indices":3,
					"material":0
				}
			]
		},
		{
			"name":"Cork University Hospital",
			"primitives":[
				{
					"attributes":{
						"POSITION":4,
						"NORMAL":5
					},
					"indices":6,
					"material":1
				},
				{
					"attributes":{
						"POSITION":7,
						"NORMAL":8
					},
					"indices":9,
					"material":2
				}
			]
		},
		{
			"name":"Cork University Hospital Cardiac & Renal Centre",
			"primitives":[
				{
					"attributes":{
						"POSITION":10,
						"NORMAL":11
					},
					"indices":12,
					"material":1
				},
				{
					"attributes":{
						"POSITION":13,
						"NORMAL":14
					},
					"indices":15,
					"material":2
				}
			]
		},
		{
			"name":"CUH Accident & Emergency",
			"primitives":[
				{
					"attributes":{
						"POSITION":16,
						"NORMAL":17
					},
					"indices":18,
					"material":1
				},
				{
					"attributes":{
						"POSITION":19,
						"NORMAL":20
					},
					"indices":21,
					"material":2
				}
			]
		},
		{
			"name":"element",
			"primitives":[
				{
					"attributes":{
						"POSITION":22,
						"NORMAL":23
					},
					"indices":24,
					"material":1
				},
				{
					"attributes":{
						"POSITION":25,
						"NORMAL":26
					},
					"indices":27,
					"material":2
				}
			]
		}
	],
	"accessors":[
		{
			"bufferView":0,
			"componentType":5126,
			"count":24,
			"max":[
				1,
				1,
				1
			],
			"min":[
				-1,
				-1,
				-1
			],
			"type":"VEC3"
		},
		{
			"bufferView":1,
			"componentType":5126,
			"count":24,
			"type":"VEC3"
		},
		{
			"bufferView":2,
			"componentType":5126,
			"count":24,
			"type":"VEC2"
		},
		{
			"bufferView":3,
			"componentType":5123,
			"count":36,
			"type":"SCALAR"
		},
		{
			"bufferView":4,
			"componentType":5126,
			"count":508,
			"max":[
				110.46450805664062,
				16.216419219970703,
				48.79115295410156
			],
			"min":[
				-154.7987823486328,
				0,
				-160.64549255371094
			],
			"type":"VEC3"
		},
		{
			"bufferView":5,
			"componentType":5126,
			"count":508,
			"type":"VEC3"
		},
		{
			"bufferView":6,
			"componentType":5123,
			"count":750,
			"type":"SCALAR"
		},
		{
			"bufferView":7,
			"componentType":5126,
			"count":125,
			"max":[
				110.46450805664062,
				16.216419219970703,
				48.79115295410156
			],
			"min":[
				-154.7987823486328,
				16.216419219970703,
				-160.64549255371094
			],
			"type":"VEC3"
		},
		{
			"bufferView":8,
			"componentType":5126,
			"count":125,
			"type":"VEC3"
		},
		{
			"bufferView":9,
			"componentType":5123,
			"count":369,
			"type":"SCALAR"
		},
		{
			"bufferView":10,
			"componentType":5126,
			"count":56,
			"max":[
				0,
				17.513002395629883,
				31.78070831298828
			],
			"min":[
				-65.92461395263672,
				0,
				-38.36085891723633
			],
			"type":"VEC3"
		},
		{
			"bufferView":11,
			"componentType":5126,
			"count":56,
			"type":"VEC3"
		},
		{
			"bufferView":12,
			"componentType":5123,
			"count":84,
			"type":"SCALAR"
		},
		{
			"bufferView":13,
			"componentType":5126,
			"count":14,
			"max":[
				0,
				17.513002395629883,
				31.78070831298828
			],
			"min":[
				-65.92461395263672,
				17.513002395629883,
				-38.36085891723633
			],
			"type":"VEC3"
		},
		{
			"bufferView":14,
			"componentType":5126,
			"count":14,
			"type":"VEC3"
		},
		{
			"bufferView":15,
			"componentType":5123,
			"count":36,
			"type":"SCALAR"
		},
		{
			"bufferView":16,
			"componentType":5126,
			"count":44,
			"max":[
				62.755409240722656,
				15.160757064819336,
				0
			],
			"min":[
				-4.37054443359375,
				0,
				-51.04106140136719
			],
			"type":"VEC3"
		},
		{
			"bufferView":17,
			"componentType":5126,
			"count":44,
			"type":"VEC3"
		},
		{
			"bufferView":18,
			"componentType":5123,
			"count":66,
			"type":"SCALAR"
		},
		{
			"bufferView":19,
			"componentType":5126,
			"count":11,
			"max":[
				62.755409240722656,
				15.160757064819336,
				0
			],
			"min":[
				-4.37054443359375,
				15.160757064819336,
				-51.04106140136719
			],
			"type":"VEC3"
		},
		{
			"bufferView":20,
			"componentType":5126,
			"count":11,
			"type":"VEC3"
		},
		{
			"bufferView":21,
			"componentType":5123,
			"count":27,
			"type":"SCALAR"
		},
		{
			"bufferView":22,
			"componentType":5126,
			"count":88,
			"max":[
				49.4039192199707,
				19.19355583190918,
				72.42525482177734
			],
			"min":[
				0,
				0,
				-19.20205307006836
			],
			"type":"VEC3"
		},
		{
			"bufferView":23,
			"componentType":5126,
			"count":88,
			"type":"VEC3"
		},
		{
			"bufferView":24,
			"componentType":5123,
			"count":132,
			"type":"SCALAR"
		},
		{
			"bufferView":25,
			"componentType":5126,
			"count":22,
			"max":[
				49.4039192199707,
				19.19355583190918,
				72.42525482177734
			],
			"min":[
				0,
				19.19355583190918,
				-19.20205307006836
			],
			"type":"VEC3"
		},
		{
			"bufferView":26,
			"componentType":5126,
			"count":22,
			"type":"VEC3"
		},
		{
			"bufferView":27,
			"componentType":5123,
			"count":60,
			"type":"SCALAR"
		}
	],
	"bufferViews":[
		{
			"buffer":0,
			"byteLength":288,
			"byteOffset":0,
			"target":34962
		},
		{
			"buffer":0,
			"byteLength":288,
			"byteOffset":288,
			"target":34962
		},
		{
			"buffer":0,
			"byteLength":192,
			"byteOffset":576,
			"target":34962
		},
		{
			"buffer":0,
			"byteLength":72,
			"byteOffset":768,
			"target":34963
		},
		{
			"buffer":0,
			"byteLength":6096,
			"byteOffset":840,
			"target":34962
		},
		{
			"buffer":0,
			"byteLength":6096,
			"byteOffset":6936,
			"target":34962
		},
		{
			"buffer":0,
			"byteLength":1500,
			"byteOffset":13032,
			"target":34963
		},
		{
			"buffer":0,
			"byteLength":1500,
			"byteOffset":14532,
			"target":34962
		},
		{
			"buffer":0,
			"byteLength":1500,
			"byteOffset":16032,
			"target":34962
		},
		{
			"buffer":0,
			"byteLength":738,
			"byteOffset":17532,
			"target":34963
		},
		{
			"buffer":0,
			"byteLength":672,
			"byteOffset":18272,
			"target":34962
		},
		{
			"buffer":0,
			"byteLength":672,
			"byteOffset":18944,
			"target":34962
		},
		{
			"buffer":0,
			"byteLength":168,
			"byteOffset":19616,
			"target":34963
		},
		{
			"buffer":0,
			"byteLength":168,
			"byteOffset":19784,
			"target":34962
		},
		{
			"buffer":0,
			"byteLength":168,
			"byteOffset":19952,
			"target":34962
		},
		{
			"buffer":0,
			"byteLength":72,
			"byteOffset":20120,
			"target":34963
		},
		{
			"buffer":0,
			"byteLength":528,
			"byteOffset":20192,
			"target":34962
		},
		{
			"buffer":0,
			"byteLength":528,
			"byteOffset":20720,
			"target":34962
		},
		{
			"buffer":0,
			"byteLength":132,
			"byteOffset":21248,
			"target":34963
		},
		{
			"buffer":0,
			"byteLength":132,
			"byteOffset":21380,
			"target":34962
		},
		{
			"buffer":0,
			"byteLength":132,
			"byteOffset":21512,
			"target":34962
		},
		{
			"buffer":0,
			"byteLength":54,
			"byteOffset":21644,
			"target":34963
		},
		{
			"buffer":0,
			"byteLength":1056,
			"byteOffset":21700,
			"target":34962
		},
		{
			"buffer":0,
			"byteLength":1056,
			"byteOffset":22756,
			"target":34962
		},
		{
			"buffer":0,
			"byteLength":264,
			"byteOffset":23812,
			"target":34963
		},
		{
			"buffer":0,
			"byteLength":264,
			"byteOffset":24076,
			"target":34962
		},
		{
			"buffer":0,
			"byteLength":264,
			"byteOffset":24340,
			"target":34962
		},
		{
			"buffer":0,
			"byteLength":120,
			"byteOffset":24604,
			"target":34963
		}
	],
	"buffers":[
		{
			"byteLength":24724,
			"uri":"buildings.bin"
		}
	]
}
