{
	"asset":{
		"generator":"Khronos glTF Blender I/O v4.0.44",
		"version":"2.0"
	},
	"scene":0,
	"scenes":[
		{
			"name":"Scene",
			"nodes":[
				4,
				5,
				6,
				56,
				72,
				75,
				76,
				77,
				78,
				79,
				80,
				81,
				82,
				83,
				84
			]
		}
	],
	"nodes":[
		{
			"mesh":0,
			"name":"Cork University Hospital",
			"translation":[
				19.381439208984375,
				0,
				60.748016357421875
			]
		},
		{
			"mesh":1,
			"name":"Cork University Hospital Cardiac & Renal Centre",
			"translation":[
				-78.03553009033203,
				0,
				97.61646270751953
			]
		},
		{
			"mesh":2,
			"name":"CUH Accident & Emergency",
			"translation":[
				97.83126068115234,
				0,
				-10.68661880493164
			]
		},
		{
			"mesh":3,
			"name":"element",
			"translation":[
				-110.0948257446289,
				0,
				-42.1457633972168
			]
		},
		{
			"children":[
				0,
				1,
				2,
				3
			],
			"name":"map_9.osm_buildings"
		},
		{
			"name":"map_9.osm_roads_secondary",
			"translation":[
				0,
				0.30000001192092896,
				0
			]
		},
		{
			"name":"map_9.osm_roads_residential",
			"translation":[
				0,
				0.30000001192092896,
				0
			]
		},
		{
			"name":"element.067"
		},
		{
			"name":"element.068"
		},
		{
			"name":"element.069"
		},
		{
			"name":"element.072"
		},
		{
			"name":"element.073"
		},
		{
			"name":"element.074"
		},
		{
			"name":"element.075"
		},
		{
			"name":"element.076"
		},
		{
			"name":"element.077"
		},
		{
			"name":"element.078"
		},
		{
			"name":"element.079"
		},
		{
			"name":"element.097"
		},
		{
			"name":"element.099"
		},
		{
			"name":"element.100"
		},
		{
			"name":"element.105"
		},
		{
			"name":"element.107"
		},
		{
			"name":"element.108"
		},
		{
			"name":"element.110"
		},
		{
			"name":"element.111"
		},
		{
			"name":"element.112"
		},
		{
			"name":"element.113"
		},
		{
			"name":"element.114"
		},
		{
			"name":"element.116"
		},
		{
			"name":"element.117"
		},
		{
			"name":"element.118"
		},
		{
			"name":"element.126"
		},
		{
			"name":"element.128"
		},
		{
			"name":"element.131"
		},
		{
			"name":"element.132"
		},
		{
			"name":"element.133"
		},
		{
			"name":"element.135"
		},
		{
			"name":"element.140"
		},
		{
			"name":"element.142"
		},
		{
			"name":"element.143"
		},
		{
			"name":"element.144"
		},
		{
			"name":"element.145"
		},
		{
			"name":"element.146"
		},
		{
			"name":"element.147"
		},
		{
			"name":"element.148"
		},
		{
			"name":"element.149"
		},
		{
			"name":"element.180"
		},
		{
			"name":"element.181"
		},
		{
			"name":"element.182"
		},
		{
			"name":"element.183"
		},
		{
			"name":"element.184"
		},
		{
			"name":"element.185"
		},
		{
			"name":"element.186"
		},
		{
			"name":"element.187"
		},
		{
			"name":"element.189"
		},
		{
			"children":[
				7,
				8,
				9,
				10,
				11,
				12,
				13,
				14,
				15,
				16,
				17,
				18,
				19,
				20,
				21,
				22,
				23,
				24,
				25,
				26,
				27,
				28,
				29,
				30,
				31,
				32,
				33,
				34,
				35,
				36,
				37,
				38,
				39,
				40,
				41,
				42,
				43,
				44,
				45,
				46,
				47,
				48,
				49,
				50,
				51,
				52,
				53,
				54,
				55
			],
			"name":"map_9.osm_roads_service",
			"translation":[
				0,
				0.30000001192092896,
				0
			]
		},
		{
			"name":"element.121"
		},
		{
			"name":"element.124"
		},
		{
			"name":"element.125"
		},
		{
			"name":"element.127"
		},
		{
			"name":"element.129"
		},
		{
			"name":"element.130"
		},
		{
			"name":"element.139"
		},
		{
			"name":"element.178"
		},
		{
			"name":"element.193"
		},
		{
			"name":"element.198"
		},
		{
			"name":"element.199"
		},
		{
			"name":"element.200"
		},
		{
			"name":"element.201"
		},
		{
			"name":"element.202"
		},
		{
			"name":"element.211"
		},
		{
			"children":[
				57,
				58,
				59,
				60,
				61,
				62,
				63,
				64,
				65,
				66,
				67,
				68,
				69,
				70,
				71
			],
			"name":"map_9.osm_paths_footway",
			"translation":[
				0,
				0.30000001192092896,
				0
			]
		},
		{
			"name":"element.120"
		},
		{
			"name":"element.122"
		},
		{
			"children":[
				73,
				74
			],
			"name":"map_9.osm_paths_steps",
			"translation":[
				0,
				0.30000001192092896,
				0
			]
		},
		{
			"name":"map_9.osm_forest",
			"translation":[
				0,
				0.10000000149011612,
				0
			]
		},
		{
			"name":"map_9.osm_vegetation"
		},
		{
			"name":"map_9.osm_paths_cycleway",
			"translation":[
				0,
				0.30000001192092896,
				0
			]
		},
		{
			"name":"profile_roads_secondary",
			"translation":[
				0,
				0,
				-11.940256118774414
			]
		},
		{
			"name":"profile_roads_residential",
			"translation":[
				0,
				0,
				-6.9708662033081055
			]
		},
		{
			"name":"profile_roads_service",
			"translation":[
				0,
				0,
				-3.567683458328247
			]
		},
		{
			"name":"profile_paths_footway",
			"translation":[
				0,
				0,
				-4.489185333251953
			]
		},
		{
			"name":"profile_paths_steps",
			"translation":[
				0,
				0,
				-0.9678186178207397
			]
		},
		{
			"name":"profile_paths_cycleway",
			"translation":[
				0,
				0,
				-0.2683899998664856
			]
		}
	],
	"materials":[
		{
			"doubleSided":true,
			"name":"wall",
			"pbrMetallicRoughness":{
				"baseColorFactor":[
					1,
					0.5,
					0.20000000298023224,
					1
				],
				"metallicFactor":0,
				"roughnessFactor":0.4000000059604645
			}
		},
		{
			"doubleSided":true,
			"name":"roof",
			"pbrMetallicRoughness":{
				"baseColorFactor":[
					0.28999999165534973,
					0.25,
					0.20999999344348907,
					1
				],
				"metallicFactor":0,
				"roughnessFactor":0.4000000059604645
			}
		}
	],
	"meshes":[
		{
			"name":"Cork University Hospital",
			"primitives":[
				{
					"attributes":{
						"POSITION":0,
						"NORMAL":1
					},
					"indices":2,
					"material":0
				},
				{
					"attributes":{
						"POSITION":3,
						"NORMAL":4
					},
					"indices":5,
					"material":1
				}
			]
		},
		{
			"name":"Cork University Hospital Cardiac & Renal Centre",
			"primitives":[
				{
					"attributes":{
						"POSITION":6,
						"NORMAL":7
					},
					"indices":8,
					"material":0
				},
				{
					"attributes":{
						"POSITION":9,
						"NORMAL":10
					},
					"indices":11,
					"material":1
				}
			]
		},
		{
			"name":"CUH Accident & Emergency",
			"primitives":[
				{
					"attributes":{
						"POSITION":12,
						"NORMAL":13
					},
					"indices":14,
					"material":0
				},
				{
					"attributes":{
						"POSITION":15,
						"NORMAL":16
					},
					"indices":17,
					"material":1
				}
			]
		},
		{
			"name":"element",
			"primitives":[
				{
					"attributes":{
						"POSITION":18,
						"NORMAL":19
					},
					"indices":20,
					"material":0
				},
				{
					"attributes":{
						"POSITION":21,
						"NORMAL":22
					},
					"indices":23,
					"material":1
				}
			]
		}
	],
	"accessors":[
		{
			"bufferView":0,
			"componentType":5126,
			"count":504,
			"max":[
				110.46450805664062,
				16.216419219970703,
				48.79115295410156
			],
			"min":[
				-154.7987823486328,
				0,
				-160.64549255371094
			],
			"type":"VEC3"
		},
		{
			"bufferView":1,
			"componentType":5126,
			"count":504,
			"type":"VEC3"
		},
		{
			"bufferView":2,
			"componentType":5123,
			"count":744,
			"type":"SCALAR"
		},
		{
			"bufferView":3,
			"componentType":5126,
			"count":125,
			"max":[
				110.46450805664062,
				16.216419219970703,
				48.79115295410156
			],
			"min":[
				-154.7987823486328,
				16.216419219970703,
				-160.64549255371094
			],
			"type":"VEC3"
		},
		{
			"bufferView":4,
			"componentType":5126,
			"count":125,
			"type":"VEC3"
		},
		{
			"bufferView":5,
			"componentType":5123,
			"count":369,
			"type":"SCALAR"
		},
		{
			"bufferView":6,
			"componentType":5126,
			"count":56,
			"max":[
				0,
				17.513002395629883,
				31.78070831298828
			],
			"min":[
				-65.92461395263672,
				0,
				-38.36085891723633
			],
			"type":"VEC3"
		},
		{
			"bufferView":7,
			"componentType":5126,
			"count":56,
			"type":"VEC3"
		},
		{
			"bufferView":8,
			"componentType":5123,
			"count":84,
			"type":"SCALAR"
		},
		{
			"bufferView":9,
			"componentType":5126,
			"count":14,
			"max":[
				0,
				17.513002395629883,
				31.78070831298828
			],
			"min":[
				-65.92461395263672,
				17.513002395629883,
				-38.36085891723633
			],
			"type":"VEC3"
		},
		{
			"bufferView":10,
			"componentType":5126,
			"count":14,
			"type":"VEC3"
		},
		{
			"bufferView":11,
			"componentType":5123,
			"count":36,
			"type":"SCALAR"
		},
		{
			"bufferView":12,
			"componentType":5126,
			"count":44,
			"max":[
				62.755409240722656,
				15.160757064819336,
				0
			],
			"min":[
				-4.37054443359375,
				0,
				-51.04106140136719
			],
			"type":"VEC3"
		},
		{
			"bufferView":13,
			"componentType":5126,
			"count":44,
			"type":"VEC3"
		},
		{
			"bufferView":14,
			"componentType":5123,
			"count":66,
			"type":"SCALAR"
		},
		{
			"bufferView":15,
			"componentType":5126,
			"count":11,
			"max":[
				62.755409240722656,
				15.160757064819336,
				0
			],
			"min":[
				-4.37054443359375,
				15.160757064819336,
				-51.04106140136719
			],
			"type":"VEC3"
		},
		{
			"bufferView":16,
			"componentType":5126,
			"count":11,
			"type":"VEC3"
		},
		{
			"bufferView":17,
			"componentType":5123,
			"count":27,
			"type":"SCALAR"
		},
		{
			"bufferView":18,
			"componentType":5126,
			"count":88,
			"max":[
				49.4039192199707,
				19.19355583190918,
				72.42525482177734
			],
			"min":[
				0,
				0,
				-19.20205307006836
			],
			"type":"VEC3"
		},
		{
			"bufferView":19,
			"componentType":5126,
			"count":88,
			"type":"VEC3"
		},
		{
			"bufferView":20,
			"componentType":5123,
			"count":132,
			"type":"SCALAR"
		},
		{
			"bufferView":21,
			"componentType":5126,
			"count":22,
			"max":[
				49.4039192199707,
				19.19355583190918,
				72.42525482177734
			],
			"min":[
				0,
				19.19355583190918,
				-19.20205307006836
			],
			"type":"VEC3"
		},
		{
			"bufferView":22,
			"componentType":5126,
			"count":22,
			"type":"VEC3"
		},
		{
			"bufferView":23,
			"componentType":5123,
			"count":60,
			"type":"SCALAR"
		}
	],
	"bufferViews":[
		{
			"buffer":0,
			"byteLength":6048,
			"byteOffset":0,
			"target":34962
		},
		{
			"buffer":0,
			"byteLength":6048,
			"byteOffset":6048,
			"target":34962
		},
		{
			"buffer":0,
			"byteLength":1488,
			"byteOffset":12096,
			"target":34963
		},
		{
			"buffer":0,
			"byteLength":1500,
			"byteOffset":13584,
			"target":34962
		},
		{
			"buffer":0,
			"byteLength":1500,
			"byteOffset":15084,
			"target":34962
		},
		{
			"buffer":0,
			"byteLength":738,
			"byteOffset":16584,
			"target":34963
		},
		{
			"buffer":0,
			"byteLength":672,
			"byteOffset":17324,
			"target":34962
		},
		{
			"buffer":0,
			"byteLength":672,
			"byteOffset":17996,
			"target":34962
		},
		{
			"buffer":0,
			"byteLength":168,
			"byteOffset":18668,
			"target":34963
		},
		{
			"buffer":0,
			"byteLength":168,
			"byteOffset":18836,
			"target":34962
		},
		{
			"buffer":0,
			"byteLength":168,
			"byteOffset":19004,
			"target":34962
		},
		{
			"buffer":0,
			"byteLength":72,
			"byteOffset":19172,
			"target":34963
		},
		{
			"buffer":0,
			"byteLength":528,
			"byteOffset":19244,
			"target":34962
		},
		{
			"buffer":0,
			"byteLength":528,
			"byteOffset":19772,
			"target":34962
		},
		{
			"buffer":0,
			"byteLength":132,
			"byteOffset":20300,
			"target":34963
		},
		{
			"buffer":0,
			"byteLength":132,
			"byteOffset":20432,
			"target":34962
		},
		{
			"buffer":0,
			"byteLength":132,
			"byteOffset":20564,
			"target":34962
		},
		{
			"buffer":0,
			"byteLength":54,
			"byteOffset":20696,
			"target":34963
		},
		{
			"buffer":0,
			"byteLength":1056,
			"byteOffset":20752,
			"target":34962
		},
		{
			"buffer":0,
			"byteLength":1056,
			"byteOffset":21808,
			"target":34962
		},
		{
			"buffer":0,
			"byteLength":264,
			"byteOffset":22864,
			"target":34963
		},
		{
			"buffer":0,
			"byteLength":264,
			"byteOffset":23128,
			"target":34962
		},
		{
			"buffer":0,
			"byteLength":264,
			"byteOffset":23392,
			"target":34962
		},
		{
			"buffer":0,
			"byteLength":120,
			"byteOffset":23656,
			"target":34963
		}
	],
	"buffers":[
		{
			"byteLength":23776,
			"uri":"buildings.bin"
		}
	]
}
